#!OML:ASF H:\Punching\Project 1\Capture day 1\Session 1\female.ASF
:FULLY-SPECIFIED
:DEGREES
1256
root 1.72975 15.7029 6.95945 11.839 -6.76104 0.390671
lowerback -2.02901 1.28853 -1.24002
upperback -5.81775 1.65843 -1.22781
thorax -4.86718 0.849621 -0.612805
lowerneck -10.519 5.17797 13.3019
upperneck 29.2381 6.5799 -7.19192
head 12.0432 3.57879 -4.09732
rclavicle -1.13338e-014 2.38542e-015
rhumerus -5.77095 46.6894 -83.3591
rradius 100.547
rwrist -38.2618
rhand -12.5962 -9.31322
rfingers 7.12502
rthumb 13.4824 -38.8568
lclavicle -1.13338e-014 2.38542e-015
lhumerus -47.1861 -40.9342 100.922
lradius 111.578
lwrist 1.91125
lhand -26.099 6.80462
lfingers 7.12502
lthumb 0.450095 36.7839
rfemur -32.4764 -7.7464 13.0101
rtibia 55.6171
rfoot -11.6262 -4.35618
rtoes -11.2248
lfemur -10.0928 -6.64606 -19.8132
ltibia 17.8274
lfoot -18.5386 16.7568
ltoes 0.847906
1257
root 1.70892 15.7089 6.98461 11.8752 -6.56443 0.387424
lowerback -2.04559 1.31165 -1.19279
upperback -5.72069 1.68888 -1.31428
thorax -4.75163 0.860436 -0.726695
lowerneck -10.6277 5.11457 13.2744
upperneck 29.1456 6.45646 -7.13164
head 12.0096 3.52352 -4.08327
rclavicle 3.34207e-014 -7.55382e-015
rhumerus -4.20592 46.9648 -82.7511
rradius 101.368
rwrist -37.1804
rhand -12.9762 -8.78627
rfingers 7.12502
rthumb 13.1161 -38.3538
lclavicle 3.34207e-014 -7.55382e-015
lhumerus -47.162 -41.2429 100.664
lradius 111.76
lwrist 1.55711
lhand -26.3437 6.83224
lfingers 7.12502
lthumb 0.213768 36.8119
rfemur -33.3208 -7.85247 12.8691
rtibia 55.9697
rfoot -11.3993 -4.15733
rtoes -11.0082
lfemur -9.7847 -6.77422 -19.7124
ltibia 17.3023
lfoot -18.2951 16.695
ltoes 0.80296
1258
root 1.68671 15.715 7.01176 11.9251 -6.34681 0.354712
lowerback -1.98199 1.33419 -1.16088
upperback -5.68139 1.71788 -1.34915
thorax -4.74427 0.872738 -0.782083
lowerneck -10.7113 5.03931 13.2034
upperneck 29.0897 6.33748 -7.08959
head 11.9845 3.46482 -4.0696
rclavicle -7.1547e-015 1.98785e-015
rhumerus -2.8377 47.3133 -82.1802
rradius 102.137
rwrist -35.9827
rhand -13.325 -8.24445
rfingers 7.12502
rthumb 12.7799 -37.8333
lclavicle -7.1547e-015 1.98785e-015
lhumerus -47.3025 -41.4312 100.58
lradius 111.93
lwrist 1.26656
lhand -26.5535 6.85119
lfingers 7.12502
lthumb 0.0111173 36.8309
rfemur -34.093 -7.91308 12.7434
rtibia 56.0247
rfoot -11.1464 -4.05043
rtoes -10.7287
lfemur -9.48753 -6.92022 -19.5702
ltibia 16.79
lfoot -18.0678 16.6394
ltoes 0.756491
1259
root 1.66289 15.7213 7.04044 11.9868 -6.10843 0.299406
lowerback -1.82726 1.35632 -1.16401
upperback -5.70294 1.74541 -1.32725
thorax -4.85547 0.88737 -0.763181
lowerneck -10.7769 4.94782 13.0787
upperneck 29.0725 6.21659 -7.06114
head 11.9686 3.39919 -4.05363
rclavicle -2.81824e-014 3.97569e-016
rhumerus -1.67392 47.7342 -81.6375
rradius 102.857
rwrist -34.6908
rhand -13.6278 -7.68984
rfingers 7.12502
rthumb 12.488 -37.2967
lclavicle -2.81824e-014 3.97569e-016
lhumerus -47.6048 -41.4929 100.679
lradius 112.088
lwrist 1.06222
lhand -26.7058 6.84205
lfingers 7.12502
lthumb -0.135972 36.8218
rfemur -34.7893 -7.92788 12.6233
rtibia 55.7913
rfoot -10.8464 -4.02658
rtoes -10.438
lfemur -9.2024 -7.06729 -19.3926
ltibia 16.2883
lfoot -17.8545 16.5737
ltoes 0.688099
1260
root 1.63722 15.7274 7.07041 12.0554 -5.85077 0.231128
lowerback -1.6181 1.3777 -1.18224
upperback -5.76121 1.77133 -1.27578
thorax -5.03785 0.902721 -0.707775
lowerneck -10.8188 4.84264 12.9237
upperneck 29.07 6.08913 -7.03856
head 11.9518 3.3275 -4.03641
rclavicle -9.84295e-015 1.11319e-014
rhumerus -0.67832 48.219 -81.1298
rradius 103.534
rwrist -33.3099
rhand -13.9263 -7.15986
rfingers 7.12502
rthumb 12.2002 -36.7841
lclavicle -9.84295e-015 1.11319e-014
lhumerus -48.022 -41.4543 100.893
lradius 112.238
lwrist 0.948318
lhand -26.7845 6.81783
lfingers 7.12502
lthumb -0.211918 36.7975
rfemur -35.4059 -7.89584 12.4953
rtibia 55.285
rfoot -10.515 -4.06051
rtoes -10.1828
lfemur -8.92472 -7.21015 -19.189
ltibia 15.7941
lfoot -17.6583 16.4915
ltoes 0.596907
1261
root 1.60912 15.7333 7.10114 12.1313 -5.57772 0.150651
lowerback -1.39437 1.40011 -1.19565
upperback -5.82528 1.79872 -1.21892
thorax -5.23503 0.918806 -0.650257
lowerneck -10.8509 4.73137 12.7676
upperneck 29.0507 5.9532 -7.01377
head 11.9254 3.25206 -4.01898
rclavicle -1.00852e-014 0
rhumerus 0.231985 48.7306 -80.6346
rradius 104.152
rwrist -31.8867
rhand -14.2016 -6.62886
rfingers 7.12502
rthumb 11.9348 -36.2687
lclavicle -1.00852e-014 0
lhumerus -48.4766 -41.3537 101.132
lradius 112.378
lwrist 0.932081
lhand -26.798 6.78776
lfingers 7.12502
lthumb -0.224968 36.7674
rfemur -35.9479 -7.8043 12.3572
rtibia 54.5253
rfoot -10.1526 -4.14518
rtoes -9.90924
lfemur -8.65692 -7.34048 -18.9576
ltibia 15.3055
lfoot -17.4744 16.3898
ltoes 0.477531
1262
root 1.57866 15.7389 7.13283 12.2147 -5.28547 0.0645945
lowerback -1.19318 1.42111 -1.19747
upperback -5.86902 1.82512 -1.16719
thorax -5.39769 0.933738 -0.60353
lowerneck -10.8937 4.61655 12.6207
upperneck 28.9977 5.80687 -6.98862
head 11.8873 3.17212 -4.00336
rclavicle 1.03019e-014 2.38542e-015
rhumerus 1.12419 49.2601 -80.1093
rradius 104.714
rwrist -30.4594
rhand -14.4611 -6.10463
rfingers 7.12502
rthumb 11.6845 -35.7588
lclavicle 1.03019e-014 2.38542e-015
lhumerus -48.921 -41.2212 101.356
lradius 112.498
lwrist 0.953694
lhand -26.7815 6.77769
lfingers 7.12502
lthumb -0.209069 36.7573
rfemur -36.4155 -7.659 12.1969
rtibia 53.534
rfoot -9.77711 -4.2629
rtoes -9.59217
lfemur -8.39878 -7.46278 -18.7058
ltibia 14.8207
lfoot -17.3005 16.2684
ltoes 0.340257
1263
root 1.5456 15.744 7.16535 12.3047 -4.97576 -0.0220894
lowerback -1.03554 1.44146 -1.17829
upperback -5.87627 1.85169 -1.13647
thorax -5.49573 0.947103 -0.5883
lowerneck -10.9514 4.50518 12.5006
upperneck 28.8986 5.65376 -6.95862
head 11.8348 3.09138 -3.98991
rclavicle -3.15794e-015 -3.18055e-015
rhumerus 2.04359 49.7881 -79.5385
rradius 105.217
rwrist -29.0697
rhand -14.7154 -5.57305
rfingers 7.12502
rthumb 11.4393 -35.241
lclavicle -3.15794e-015 -3.18055e-015
lhumerus -49.3186 -41.0841 101.517
lradius 112.599
lwrist 1.01114
lhand -26.7423 6.79242
lfingers 7.12502
lthumb -0.17117 36.7721
rfemur -36.8125 -7.45884 12.0076
rtibia 52.338
rfoot -9.39315 -4.40977
rtoes -9.25314
lfemur -8.14799 -7.57914 -18.4388
ltibia 14.3358
lfoot -17.1302 16.1312
ltoes 0.180607
1264
root 1.5099 15.7485 7.19873 12.4031 -4.64548 -0.107528
lowerback -0.940884 1.46038 -1.13119
upperback -5.83508 1.87772 -1.13288
thorax -5.50474 0.958005 -0.613791
lowerneck -11.0337 4.39538 12.408
upperneck 28.7424 5.48761 -6.91831
head 11.7647 3.0073 -3.9772
rclavicle -4.75996e-015 1.07344e-014
rhumerus 3.03094 50.3009 -78.8968
rradius 105.659
rwrist -27.7584
rhand -14.9582 -5.02779
rfingers 7.12502
rthumb 11.205 -34.7086
lclavicle -4.75996e-015 1.07344e-014
lhumerus -49.6413 -40.9574 101.587
lradius 112.688
lwrist 1.11002
lhand -26.6805 6.8264
lfingers 7.12502
lthumb -0.111516 36.8061
rfemur -37.1462 -7.20648 11.7861
rtibia 50.9654
rfoot -9.01013 -4.59267
rtoes -8.92562
lfemur -7.90466 -7.69876 -18.1575
ltibia 13.8449
lfoot -16.9564 15.9828
ltoes 0.00252919
1265
root 1.47163 15.7523 7.23327 12.5066 -4.2926 -0.18147
lowerback -0.842596 1.47825 -1.10489
upperback -5.79115 1.90194 -1.12851
thorax -5.51368 0.969036 -0.626916
lowerneck -11.1224 4.27824 12.3051
upperneck 28.5744 5.30864 -6.86532
head 11.6896 2.91748 -3.95924
rclavicle -1.19737e-014 -1.59028e-015
rhumerus 3.97042 50.8268 -78.2218
rradius 106.061
rwrist -26.5462
rhand -15.2019 -4.48287
rfingers 7.12502
rthumb 10.97 -34.1763
lclavicle -1.19737e-014 -1.59028e-015
lhumerus -49.9666 -40.7965 101.659
lradius 112.77
lwrist 1.30675
lhand -26.5539 6.82765
lfingers 7.12502
lthumb 0.0107319 36.8074
rfemur -37.4173 -6.90977 11.5197
rtibia 49.4478
rfoot -8.63583 -4.82032
rtoes -8.62347
lfemur -7.66322 -7.82465 -17.8741
ltibia 13.3422
lfoot -16.7712 15.8217
ltoes -0.197164
1266
root 1.43069 15.7554 7.26884 12.6152 -3.9204 -0.240893
lowerback -0.740906 1.49629 -1.10255
upperback -5.74414 1.92581 -1.12506
thorax -5.52213 0.98102 -0.627701
lowerneck -11.2211 4.15312 12.193
upperneck 28.3957 5.11563 -6.80044
head 11.6108 2.82132 -3.9367
rclavicle -1.15233e-014 0
rhumerus 4.85704 51.3621 -77.5215
rradius 106.426
rwrist -25.4418
rhand -15.438 -3.95354
rfingers 7.12502
rthumb 10.7423 -33.6589
lclavicle -1.15233e-014 0
lhumerus -50.2944 -40.6044 101.726
lradius 112.851
lwrist 1.59633
lhand -26.3567 6.79125
lfingers 7.12502
lthumb 0.201228 36.7709
rfemur -37.6373 -6.56734 11.2059
rtibia 47.8171
rfoot -8.27011 -5.112
rtoes -8.35743
lfemur -7.42132 -7.96748 -17.5913
ltibia 12.8197
lfoot -16.5673 15.6597
ltoes -0.411653
1267
root 1.38715 15.7578 7.30555 12.7266 -3.52521 -0.284064
lowerback -0.629907 1.51291 -1.12325
upperback -5.69797 1.94692 -1.12355
thorax -5.53757 0.992681 -0.61789
lowerneck -11.3222 4.01914 12.0729
upperneck 28.206 4.90774 -6.72225
head 11.5267 2.71888 -3.90949
rclavicle -1.61885e-014 3.18055e-015
rhumerus 5.66659 51.8999 -76.8235
rradius 106.754
rwrist -24.453
rhand -15.6509 -3.44174
rfingers 7.12502
rthumb 10.5369 -33.1576
lclavicle -1.61885e-014 3.18055e-015
lhumerus -50.6381 -40.3646 101.791
lradius 112.935
lwrist 1.9603
lhand -26.0918 6.71142
lfingers 7.12502
lthumb 0.457096 36.6907
rfemur -37.8105 -6.18764 10.8438
rtibia 46.1054
rfoot -7.90578 -5.48583
rtoes -8.16943
lfemur -7.17108 -8.1239 -17.3108
ltibia 12.2639
lfoot -16.3337 15.4908
ltoes -0.654609
